<?xml version="1.0" encoding="iso-8859-1"?>
<!-- Generator: Adobe Illustrator 19.0.0, SVG Export Plug-In . SVG Version: 6.00 Build 0)  -->
<svg version="1.1" id="Capa_1" xmlns="http://www.w3.org/2000/svg" xmlns:xlink="http://www.w3.org/1999/xlink" x="0px" y="0px"
	 viewBox="0 0 512 512" style="enable-background:new 0 0 512 512;" xml:space="preserve">
<g>
  <!-- couleur rouge : #D80027 -->
  <!-- couleur verte : #1B998B -->
  <!-- couleur bleue : #78B9EB -->
  <!-- couleur gris foncé : #58595B -->
  <!-- couleur gris foncé : #ACABB1-->
  <!-- couleur gris clair : #E6E7E8 -->
  <!-- couleur noir : #231F20 -->
  <!-- couleur blanc : #FFFFFF -->



	<path style="fill:#1B998B;" d="M157.594,337.067h158.14V89.6c0-9.429-7.637-17.067-17.067-17.067H8.533v264.533l0,0v17.067
		c0,9.429,7.637,17.067,17.067,17.067h42.667c0-28.279,22.921-51.2,51.2-51.2s51.2,22.921,51.2,51.2h145.067v-34.133H157.594z
		 M133.427,254.839c0,14.14-11.46,25.6-25.6,25.6C121.967,280.439,133.427,268.979,133.427,254.839c0-14.14-11.46-25.6-25.6-25.6
		s-25.6,11.46-25.6,25.6c0-14.14,11.469-25.6,25.609-25.591c6.784,0,13.295,2.697,18.091,7.492l72.414-72.414
		c-9.993-10.001-9.993-26.206,0.009-36.207c4.796-4.796,11.307-7.492,18.091-7.492c-14.14,0-25.6,11.469-25.591,25.609
		c0,6.784,2.697,13.295,7.492,18.091l0,0c10.001,9.993,26.206,9.993,36.207-0.009c4.796-4.796,7.492-11.307,7.492-18.091
		c0,14.14-11.469,25.6-25.609,25.591c-6.784,0-13.295-2.697-18.091-7.492l-72.414,72.414
		C130.731,241.536,133.436,248.047,133.427,254.839z"/>
	<path style="fill:#1B998B;" d="M366.933,234.667V115.2h-51.2v256H358.4c0-28.279,22.921-51.2,51.2-51.2
		c28.279,0,51.2,22.921,51.2,51.2h42.667V268.8h-102.4C382.217,268.8,366.933,253.517,366.933,234.667z"/>
</g>
<path style="fill:#78B9EB;" d="M401.067,115.2c56.55,0,102.4,45.85,102.4,102.4C503.467,161.05,457.617,115.2,401.067,115.2z"/>
<g>
	<path style="fill:#58595B;" d="M119.467,320c-28.279,0-51.2,22.921-51.2,51.2c0,28.279,22.921,51.2,51.2,51.2
		s51.2-22.921,51.2-51.2C170.667,342.921,147.746,320,119.467,320z M119.467,396.8c-14.14,0-25.6-11.46-25.6-25.6
		s11.46-25.6,25.6-25.6s25.6,11.46,25.6,25.6S133.606,396.8,119.467,396.8z"/>
	<path style="fill:#58595B;" d="M409.6,320c-28.279,0-51.2,22.921-51.2,51.2c0,28.279,22.921,51.2,51.2,51.2
		c28.279,0,51.2-22.921,51.2-51.2C460.8,342.921,437.879,320,409.6,320z M409.6,396.8c-14.14,0-25.6-11.46-25.6-25.6
		s11.46-25.6,25.6-25.6c14.14,0,25.6,11.46,25.6,25.6S423.74,396.8,409.6,396.8z"/>
</g>
<path style="fill:#E6E7E8;" d="M401.067,115.2h-34.133v119.467c0,18.85,15.283,34.133,34.133,34.133h102.4v-51.2
	C503.467,161.05,457.617,115.2,401.067,115.2z"/>
<g>
	<circle style="fill:#ACABB1;" cx="409.6" cy="371.2" r="25.6"/>
	<circle style="fill:#ACABB1;" cx="119.467" cy="371.2" r="25.6"/>
</g>
<g>
	<path style="fill:#FFFFFF;" d="M401.067,106.667h-76.8V89.6c0-14.14-11.46-25.6-25.6-25.6H8.533C3.823,64,0,67.823,0,72.533v281.6
		c0,14.14,11.46,25.6,25.6,25.6h34.816c4.685,32.614,34.918,55.253,67.533,50.569c26.214-3.763,46.805-24.354,50.569-50.569h172.032
		c4.685,32.614,34.918,55.253,67.533,50.569c26.214-3.763,46.805-24.354,50.569-50.569h34.816c4.71,0,8.533-3.823,8.533-8.533V217.6
		C511.932,156.365,462.302,106.735,401.067,106.667z M401.067,123.733c51.814,0.06,93.807,42.052,93.867,93.867v42.667h-93.867
		c-14.14,0-25.6-11.46-25.6-25.6V123.733H401.067z M178.219,360.73c-0.145-0.853-0.282-1.621-0.461-2.423
		c-0.239-1.084-0.529-2.142-0.853-3.209c-0.205-0.751-0.401-1.51-0.64-2.244c-0.358-1.109-0.777-2.185-1.195-3.26
		c-0.265-0.666-0.495-1.331-0.768-1.98s-0.631-1.34-0.956-2.014H307.2v17.067H178.594C178.5,362.01,178.347,361.378,178.219,360.73z
		 M298.667,81.067c4.71,0,8.533,3.823,8.533,8.533v238.933H161.186c-0.23-0.23-0.486-0.444-0.734-0.666
		c-0.794-0.751-1.587-1.502-2.423-2.21c-0.589-0.503-1.203-0.973-1.818-1.451c-0.853-0.657-1.707-1.297-2.56-1.911
		c-0.649-0.452-1.306-0.853-1.98-1.314c-0.853-0.572-1.783-1.126-2.705-1.647c-0.691-0.401-1.391-0.777-2.099-1.152
		c-0.947-0.486-1.903-0.947-2.876-1.382c-0.725-0.333-1.451-0.657-2.185-0.956c-1.007-0.41-2.039-0.768-3.072-1.126
		c-0.742-0.256-1.476-0.521-2.236-0.742c-1.092-0.324-2.202-0.589-3.311-0.853c-0.734-0.171-1.451-0.367-2.193-0.512
		c-1.246-0.247-2.56-0.418-3.797-0.58c-0.631-0.085-1.254-0.205-1.894-0.265c-1.911-0.188-3.866-0.299-5.837-0.299
		s-3.925,0.111-5.845,0.299c-0.64,0.06-1.263,0.179-1.894,0.265c-1.28,0.162-2.56,0.333-3.797,0.58
		c-0.742,0.145-1.459,0.341-2.193,0.512c-1.109,0.264-2.219,0.529-3.311,0.853c-0.759,0.222-1.493,0.486-2.236,0.742
		c-1.033,0.358-2.065,0.717-3.072,1.126c-0.734,0.299-1.459,0.623-2.185,0.956c-0.973,0.435-1.929,0.853-2.876,1.382
		c-0.708,0.375-1.408,0.751-2.099,1.152c-0.922,0.521-1.818,1.075-2.705,1.647c-0.674,0.427-1.331,0.853-1.98,1.314
		c-0.853,0.614-1.707,1.254-2.56,1.911c-0.614,0.478-1.229,0.947-1.818,1.451c-0.853,0.708-1.63,1.459-2.423,2.21
		c-0.299,0.282-0.614,0.538-0.913,0.853c-0.247-0.077-0.503-0.136-0.759-0.188H17.067V81.067H298.667z M17.067,354.133V345.6h48.495
		c-0.324,0.674-0.657,1.331-0.956,2.014c-0.299,0.683-0.503,1.314-0.768,1.98c-0.418,1.075-0.853,2.15-1.195,3.26
		c-0.239,0.734-0.435,1.493-0.64,2.244c-0.299,1.067-0.589,2.125-0.853,3.209c-0.179,0.802-0.316,1.604-0.461,2.423
		c-0.119,0.649-0.282,1.28-0.375,1.937H25.6C20.89,362.667,17.067,358.844,17.067,354.133z M119.467,413.867
		c-23.561,0-42.667-19.106-42.667-42.667s19.106-42.667,42.667-42.667s42.667,19.106,42.667,42.667
		C162.108,394.752,143.019,413.841,119.467,413.867z M409.6,413.867c-23.561,0-42.667-19.106-42.667-42.667
		s19.106-42.667,42.667-42.667c23.561,0,42.667,19.106,42.667,42.667C452.241,394.752,433.152,413.841,409.6,413.867z
		 M468.728,362.667c-0.094-0.657-0.256-1.289-0.375-1.937c-0.145-0.853-0.282-1.621-0.461-2.423
		c-0.239-1.084-0.529-2.142-0.853-3.209c-0.205-0.751-0.401-1.51-0.64-2.244c-0.358-1.109-0.777-2.185-1.195-3.26
		c-0.265-0.666-0.495-1.331-0.768-1.98c-0.529-1.22-1.126-2.406-1.707-3.584c-0.239-0.469-0.444-0.956-0.7-1.417
		c-0.879-1.613-1.835-3.174-2.859-4.702c-0.23-0.341-0.495-0.649-0.725-0.99c-0.853-1.169-1.707-2.321-2.56-3.413
		c-0.418-0.512-0.853-0.99-1.306-1.493c-0.777-0.853-1.545-1.766-2.364-2.56c-0.521-0.529-1.067-1.024-1.613-1.527
		c-0.794-0.751-1.587-1.502-2.423-2.21c-0.589-0.503-1.203-0.973-1.818-1.451c-0.853-0.657-1.707-1.297-2.56-1.911
		c-0.649-0.452-1.306-0.853-1.98-1.314c-0.853-0.572-1.783-1.126-2.705-1.647c-0.691-0.401-1.391-0.777-2.099-1.152
		c-0.947-0.486-1.903-0.947-2.876-1.382c-0.725-0.333-1.451-0.657-2.185-0.956c-1.007-0.41-2.039-0.768-3.072-1.126
		c-0.742-0.256-1.476-0.521-2.236-0.742c-1.092-0.324-2.202-0.589-3.311-0.853c-0.734-0.171-1.451-0.367-2.193-0.512
		c-1.246-0.247-2.517-0.418-3.797-0.58c-0.631-0.085-1.254-0.205-1.894-0.265c-1.929-0.248-3.883-0.358-5.854-0.358
		c-1.971,0-3.925,0.111-5.845,0.299c-0.64,0.06-1.263,0.179-1.894,0.265c-1.28,0.162-2.56,0.333-3.797,0.58
		c-0.742,0.145-1.459,0.341-2.193,0.512c-1.109,0.264-2.219,0.529-3.311,0.853c-0.759,0.222-1.493,0.486-2.236,0.742
		c-1.033,0.358-2.065,0.717-3.072,1.126c-0.734,0.299-1.459,0.623-2.185,0.956c-0.973,0.435-1.929,0.853-2.876,1.382
		c-0.708,0.375-1.408,0.751-2.099,1.152c-0.922,0.521-1.818,1.075-2.705,1.647c-0.674,0.427-1.331,0.853-1.98,1.314
		c-0.853,0.614-1.707,1.254-2.56,1.911c-0.614,0.478-1.229,0.947-1.818,1.451c-0.853,0.708-1.63,1.459-2.423,2.21
		c-0.546,0.503-1.092,0.998-1.613,1.527c-0.853,0.853-1.587,1.707-2.364,2.56c-0.435,0.503-0.853,0.981-1.306,1.493
		c-0.905,1.109-1.749,2.261-2.56,3.413c-0.23,0.341-0.495,0.649-0.725,0.99c-1.024,1.519-1.98,3.089-2.859,4.702
		c-0.256,0.461-0.461,0.947-0.7,1.417c-0.606,1.178-1.203,2.364-1.707,3.584c-0.273,0.649-0.503,1.314-0.768,1.98
		c-0.418,1.075-0.853,2.15-1.195,3.26c-0.239,0.734-0.435,1.493-0.64,2.244c-0.299,1.067-0.589,2.125-0.853,3.209
		c-0.179,0.802-0.316,1.604-0.461,2.423c-0.119,0.649-0.282,1.28-0.375,1.937h-26.214V123.733H358.4v110.933
		c0.026,23.552,19.115,42.641,42.667,42.667h93.867v85.333H468.728z"/>
	<path style="fill:#FFFFFF;" d="M82.227,263.373c4.71,0,8.533-3.823,8.533-8.533c0-9.429,7.637-17.067,17.067-17.067
		s17.067,7.637,17.067,17.067s-7.637,17.067-17.067,17.067c-4.71,0-8.533,3.823-8.533,8.533c0,4.71,3.823,8.533,8.533,8.533
		c18.85,0,34.133-15.283,34.133-34.133c-0.034-6.076-1.707-12.032-4.838-17.237l62.089-62.08c5.205,3.132,11.153,4.804,17.229,4.838
		c18.85,0,34.133-15.283,34.133-34.133c0-4.71-3.823-8.533-8.533-8.533c-4.71,0-8.533,3.823-8.533,8.533
		c0,9.429-7.637,17.067-17.067,17.067c-9.429,0-17.067-7.637-17.067-17.067s7.637-17.067,17.067-17.067
		c4.71,0,8.533-3.823,8.533-8.533c0-4.71-3.823-8.533-8.533-8.533c-18.85,0-34.133,15.283-34.133,34.133
		c0.034,6.076,1.707,12.032,4.838,17.237l-62.089,62.08c-5.205-3.132-11.153-4.804-17.229-4.838
		c-18.85,0-34.133,15.283-34.133,34.133C73.694,259.55,77.517,263.373,82.227,263.373z"/>
	<path style="fill:#FFFFFF;" d="M409.6,337.067c-18.85,0-34.133,15.283-34.133,34.133s15.283,34.133,34.133,34.133
		c18.85,0,34.133-15.283,34.133-34.133S428.45,337.067,409.6,337.067z M409.6,388.267c-9.429,0-17.067-7.637-17.067-17.067
		c0-9.429,7.637-17.067,17.067-17.067c9.429,0,17.067,7.637,17.067,17.067C426.667,380.629,419.029,388.267,409.6,388.267z"/>
	<path style="fill:#FFFFFF;" d="M119.467,337.067c-18.85,0-34.133,15.283-34.133,34.133s15.283,34.133,34.133,34.133
		S153.6,390.05,153.6,371.2S138.317,337.067,119.467,337.067z M119.467,388.267c-9.429,0-17.067-7.637-17.067-17.067
		c0-9.429,7.637-17.067,17.067-17.067s17.067,7.637,17.067,17.067C136.533,380.629,128.896,388.267,119.467,388.267z"/>
<!-- 	<path style="fill:#231F20;" d="M8.533,430.933c-4.71,0-8.533,3.823-8.533,8.533C0,444.177,3.823,448,8.533,448h494.933
		c4.71,0,8.533-3.823,8.533-8.533c0-4.71-3.823-8.533-8.533-8.533H8.533z"/> -->
</g>
<g>
</g>
<g>
</g>
<g>
</g>
<g>
</g>
<g>
</g>
<g>
</g>
<g>
</g>
<g>
</g>
<g>
</g>
<g>
</g>
<g>
</g>
<g>
</g>
<g>
</g>
<g>
</g>
<g>
</g>
</svg>
